<?xml version="1.0" encoding="UTF-8" standalone="no"?>
<!-- Created with Inkscape (http://www.inkscape.org/) -->

<svg
   xmlns:dc="http://purl.org/dc/elements/1.1/"
   xmlns:cc="http://creativecommons.org/ns#"
   xmlns:rdf="http://www.w3.org/1999/02/22-rdf-syntax-ns#"
   xmlns:svg="http://www.w3.org/2000/svg"
   xmlns="http://www.w3.org/2000/svg"
   xmlns:sodipodi="http://sodipodi.sourceforge.net/DTD/sodipodi-0.dtd"
   xmlns:inkscape="http://www.inkscape.org/namespaces/inkscape"
   width="950"
   height="236"
   viewBox="0 0 950 235.99999"
   id="svg2"
   version="1.1"
   inkscape:version="0.91 r13725"
   sodipodi:docname="Freezer_small_margin.svg"
   inkscape:export-filename="D:\Freezer\img\freezer-bg_2.png"
   inkscape:export-xdpi="600"
   inkscape:export-ydpi="600">
  <defs
     id="defs4" />
  <sodipodi:namedview
     id="base"
     pagecolor="#ffffff"
     bordercolor="#666666"
     borderopacity="1.0"
     inkscape:pageopacity="0.0"
     inkscape:pageshadow="2"
     inkscape:zoom="1.1"
     inkscape:cx="475"
     inkscape:cy="118"
     inkscape:document-units="px"
     inkscape:current-layer="layer1"
     showgrid="false"
     units="px"
     showguides="true"
     inkscape:window-width="1600"
     inkscape:window-height="847"
     inkscape:window-x="1358"
     inkscape:window-y="22"
     inkscape:window-maximized="1"
     inkscape:guide-bbox="true"
     fit-margin-top="0"
     fit-margin-left="0"
     fit-margin-right="0"
     fit-margin-bottom="0">
    <sodipodi:guide
       position="24,604.02683"
       orientation="1,0"
       id="guide4154"
       inkscape:label=""
       inkscape:color="rgb(0,0,255)" />
    <inkscape:grid
       type="xygrid"
       id="grid4166"
       originx="0"
       originy="-7.3828124e-006" />
    <sodipodi:guide
       position="304.42953,23.999999"
       orientation="0,1"
       id="guide4149"
       inkscape:label=""
       inkscape:color="rgb(0,0,255)" />
    <sodipodi:guide
       position="200,-127.70172"
       orientation="1,0"
       id="guide4187"
       inkscape:label=""
       inkscape:color="rgb(0,0,255)" />
    <sodipodi:guide
       position="224,591.94629"
       orientation="1,0"
       id="guide4189"
       inkscape:label=""
       inkscape:color="rgb(0,0,255)" />
    <sodipodi:guide
       position="927.67129,110.62727"
       orientation="1,0"
       id="guide4191" />
    <sodipodi:guide
       position="950,652.0805"
       orientation="1,0"
       id="guide4193"
       inkscape:label=""
       inkscape:color="rgb(0,0,255)" />
    <sodipodi:guide
       position="965.33843,212.48599"
       orientation="0,1"
       id="guide4195"
       inkscape:label=""
       inkscape:color="rgb(0,0,255)" />
    <sodipodi:guide
       position="24,235.99999"
       orientation="0,1"
       id="guide4148"
       inkscape:label=""
       inkscape:color="rgb(0,0,255)" />
  </sodipodi:namedview>
  <metadata
     id="metadata7">
    <rdf:RDF>
      <cc:Work
         rdf:about="">
        <dc:format>image/svg+xml</dc:format>
        <dc:type
           rdf:resource="http://purl.org/dc/dcmitype/StillImage" />
        <dc:title></dc:title>
      </cc:Work>
    </rdf:RDF>
  </metadata>
  <g
     inkscape:label="Capa 1"
     inkscape:groupmode="layer"
     id="layer1"
     transform="translate(0,-816.36218)">
    <rect
       style="opacity:1;fill:#323232;fill-opacity:1;stroke:none;stroke-width:2;stroke-opacity:1"
       id="rect4148"
       width="950"
       height="236"
       x="0"
       y="-1052.3622"
       inkscape:export-xdpi="181.74001"
       inkscape:export-ydpi="181.74001"
       inkscape:export-filename="D:\Freezer\img\icon_yellow.png"
       transform="scale(1,-1)" />
    <g
       id="g4155">
      <path
         sodipodi:nodetypes="ssssss"
         inkscape:connector-curvature="0"
         id="path4149"
         d="m 169.19434,895.73928 c 10e-6,30.52422 -27.3815,55.26899 -61.1583,55.26899 -33.776803,0 -66.568595,-17.51363 -69.836828,-47.86238 -1.169019,-10.85548 11.189791,-32.95647 25.69854,-44.96828 17.297027,-14.32023 48.558948,-20.05732 56.580358,-17.84 32.55587,8.9993 48.71623,24.87745 48.71623,55.40167 z"
         style="opacity:1;fill:#3995cd;fill-opacity:1;stroke:none;stroke-width:0.25;stroke-opacity:1" />
      <g
         id="g4152">
        <path
           style="opacity:1;fill:#e1ecf0;fill-opacity:1;fill-rule:evenodd;stroke:none;stroke-width:0.25;stroke-linecap:butt;stroke-linejoin:miter;stroke-opacity:1"
           d="m 108.74306,844.37595 c -0.59025,-3.31286 1.00097,-3.35355 2.12206,-4.09943 0.50343,0.21871 60.72344,-10.39883 77.80927,65.42929 l 0.45303,21.29215 10.64608,16.7619 0.2265,8.15444 -10.31326,26.9945 -25.94727,12.17279 -9.28977,17.29821 -18.89242,10.3556 9.40025,-30.35263 0.11326,-8.15444 10.07979,-2.60489 16.76191,-16.08237 -35.22265,10.30631 -11.66539,9.51351 16.98843,-1.01931 -0.11326,9.40027 -9.85329,30.23935 -16.64865,8.381 -18.007714,-6.6821 -10.306308,-31.37197 0.339773,-9.62677 16.082369,0.67953 -15.629355,-10.98584 -27.407974,-8.38095 14.836547,15.96911 9.626772,2.83141 -0.113261,9.85327 9.513521,29.89961 -21.858427,-10.193 L 60.468471,990.64789 35.778636,979.5488 24,953.04687 24.226512,942.85381 35.0991,926.54493 c 0.860983,-9.97287 -0.533341,-18.94337 3.770622,-30.44646 l 7.328478,0.0938 c 29.597595,13.17289 23.519517,31.41574 54.13642,39.86615 l 23.78379,-0.22652 c 18.03956,-6.29146 30.96069,-17.04092 39.63964,-31.48519 l -1.35908,-9.51352 c -25.47889,5.90549 -28.84643,-29.95657 -14.04375,-28.76705 -7.46802,-11.22195 -15.5004,-13.30454 -39.61216,-21.69022 z"
           id="path3347"
           inkscape:connector-curvature="0"
           sodipodi:nodetypes="cccccccccccccccccccccccccccccccccccccccccccc" />
      </g>
    </g>
    <text
       xml:space="preserve"
       style="font-style:normal;font-weight:normal;font-size:54.41919327px;line-height:125%;font-family:sans-serif;letter-spacing:0px;word-spacing:0px;fill:#e1ecf0;fill-opacity:1;stroke:none;stroke-width:1px;stroke-linecap:butt;stroke-linejoin:miter;stroke-opacity:1;"
       x="214.07851"
       y="969.1944"
       id="text4244"
       sodipodi:linespacing="125%"
       transform="scale(0.96402155,1.0373212)"><tspan
         sodipodi:role="line"
         id="tspan4246"
         x="214.07851"
         y="969.1944"
         style="font-style:normal;font-variant:normal;font-weight:normal;font-stretch:normal;font-size:217.67677307px;font-family:Calibri;-inkscape-font-specification:Calibri;fill:#e1ecf0;fill-opacity:1;">FREEZER</tspan></text>
  </g>
</svg>
