<?xml version="1.0" encoding="UTF-8" standalone="no"?>
<!-- Created with Inkscape (http://www.inkscape.org/) -->

<svg
   xmlns:dc="http://purl.org/dc/elements/1.1/"
   xmlns:cc="http://creativecommons.org/ns#"
   xmlns:rdf="http://www.w3.org/1999/02/22-rdf-syntax-ns#"
   xmlns:svg="http://www.w3.org/2000/svg"
   xmlns="http://www.w3.org/2000/svg"
   xmlns:sodipodi="http://sodipodi.sourceforge.net/DTD/sodipodi-0.dtd"
   xmlns:inkscape="http://www.inkscape.org/namespaces/inkscape"
   width="1132"
   height="361"
   viewBox="0 0 1132 360.99999"
   id="svg2"
   version="1.1"
   inkscape:version="0.91 r13725"
   sodipodi:docname="Free-zer.svg"
   inkscape:export-filename="D:\Freezer\img\freezer_black_txt.png"
   inkscape:export-xdpi="600"
   inkscape:export-ydpi="600">
  <defs
     id="defs4" />
  <sodipodi:namedview
     id="base"
     pagecolor="#ffffff"
     bordercolor="#666666"
     borderopacity="1.0"
     inkscape:pageopacity="0.0"
     inkscape:pageshadow="2"
     inkscape:zoom="0.92402827"
     inkscape:cx="566"
     inkscape:cy="180.5"
     inkscape:document-units="px"
     inkscape:current-layer="layer1"
     showgrid="false"
     units="px"
     showguides="true"
     inkscape:window-width="1600"
     inkscape:window-height="847"
     inkscape:window-x="1358"
     inkscape:window-y="22"
     inkscape:window-maximized="1"
     inkscape:guide-bbox="true"
     fit-margin-top="0"
     fit-margin-left="0"
     fit-margin-right="0"
     fit-margin-bottom="0">
    <sodipodi:guide
       position="80,604.02683"
       orientation="1,0"
       id="guide4154"
       inkscape:label=""
       inkscape:color="rgb(0,0,255)" />
    <inkscape:grid
       type="xygrid"
       id="grid4166"
       originx="0"
       originy="-7.3828124e-006" />
    <sodipodi:guide
       position="304.42953,79.99999"
       orientation="0,1"
       id="guide4149"
       inkscape:label=""
       inkscape:color="rgb(0,0,255)" />
    <sodipodi:guide
       position="268.72483,150.33556"
       orientation="1,0"
       id="guide4187" />
    <sodipodi:guide
       position="348,591.94629"
       orientation="1,0"
       id="guide4189"
       inkscape:label=""
       inkscape:color="rgb(0,0,255)" />
    <sodipodi:guide
       position="1052.349,377.7181"
       orientation="1,0"
       id="guide4191" />
    <sodipodi:guide
       position="1132,652.08051"
       orientation="1,0"
       id="guide4193"
       inkscape:label=""
       inkscape:color="rgb(0,0,255)" />
    <sodipodi:guide
       position="695.30201,281.87918"
       orientation="0,1"
       id="guide4195" />
    <sodipodi:guide
       position="738.52349,362.68455"
       orientation="0,1"
       id="guide4197" />
  </sodipodi:namedview>
  <metadata
     id="metadata7">
    <rdf:RDF>
      <cc:Work
         rdf:about="">
        <dc:format>image/svg+xml</dc:format>
        <dc:type
           rdf:resource="http://purl.org/dc/dcmitype/StillImage" />
        <dc:title />
      </cc:Work>
    </rdf:RDF>
  </metadata>
  <g
     inkscape:label="Capa 1"
     inkscape:groupmode="layer"
     id="layer1"
     transform="translate(0,-691.36218)">
    <rect
       style="opacity:1;fill:#323232;fill-opacity:1;stroke:none;stroke-width:2;stroke-opacity:1"
       id="rect4148"
       width="346.64755"
       height="362.68457"
       x="0"
       y="689.67761"
       inkscape:export-xdpi="181.74001"
       inkscape:export-ydpi="181.74001"
       inkscape:export-filename="D:\Freezer\img\icon.png" />
    <g
       id="g4150"
       style="stroke:none">
      <path
         sodipodi:nodetypes="ssssss"
         inkscape:connector-curvature="0"
         id="path4149"
         d="m 234.83374,830.9345 c 1e-5,32.55071 -29.19935,58.93828 -65.21858,58.93828 -36.01923,0 -70.988058,-18.67636 -74.473268,-51.03995 -1.246629,-11.57617 11.932678,-35.14444 27.404658,-47.95371 18.44537,-15.27094 51.78276,-21.38892 60.33671,-19.02439 34.71724,9.59676 51.95048,26.52906 51.95048,59.07977 z"
         style="opacity:1;fill:#3995cd;fill-opacity:1;stroke:none;stroke-width:0.25;stroke-opacity:1" />
      <path
         sodipodi:nodetypes="cccccccccccccccccccccccccccccccccccccccccccc"
         inkscape:connector-curvature="0"
         id="path3347"
         d="m 170.36912,776.16118 c -0.62943,-3.53281 1.06743,-3.5762 2.26294,-4.37159 0.53686,0.23323 64.75485,-11.08921 82.97501,69.77311 l 0.4831,22.70573 11.35287,17.87472 0.24154,8.69581 -10.99796,28.78665 -27.6699,12.98094 -9.90651,18.4466 -20.14668,11.04315 10.02433,-32.36774 0.12078,-8.69581 10.74898,-2.77783 17.87473,-17.15007 -37.56107,10.99054 -12.43985,10.14511 18.11628,-1.08698 -0.12078,10.02435 -10.50744,32.24696 -17.75395,8.93736 -19.20324,-7.12573 -10.99054,-33.45472 0.36233,-10.26589 17.15007,0.72465 -16.66698,-11.71519 -29.22758,-8.93736 15.82154,17.0293 10.26589,3.01938 -0.12078,10.50743 10.14512,31.88464 -23.3096,-10.86976 L 118.8896,932.14406 92.560615,920.3081 80,892.04672 80.24155,881.17695 91.835965,863.78533 c 0.918143,-10.63497 -0.568749,-20.20102 4.020952,-32.46779 l 7.815013,0.10005 c 31.56257,14.04744 25.08097,33.50142 57.73052,42.51285 l 25.36279,-0.24155 c 19.2372,-6.70915 33.01616,-18.17227 42.2713,-33.57549 l -1.44931,-10.14511 c -27.17043,6.29755 -30.76153,-31.94538 -14.97611,-30.67689 -7.96382,-11.96697 -16.52947,-14.18782 -42.242,-23.13022 z"
         style="opacity:1;fill:#e1ecf0;fill-opacity:1;fill-rule:evenodd;stroke:none;stroke-width:0.25;stroke-linecap:butt;stroke-linejoin:miter;stroke-opacity:1" />
    </g>
    <text
       xml:space="preserve"
       style="font-style:normal;font-weight:normal;font-size:54.41919327px;line-height:125%;font-family:sans-serif;letter-spacing:0px;word-spacing:0px;fill:#323232;fill-opacity:1;stroke:none;stroke-width:1px;stroke-linecap:butt;stroke-linejoin:miter;stroke-opacity:1;"
       x="342.70346"
       y="908.94305"
       id="text4244"
       sodipodi:linespacing="125%"
       transform="scale(0.96402154,1.0373212)"><tspan
         sodipodi:role="line"
         id="tspan4246"
         x="342.70346"
         y="908.94305"
         style="font-style:normal;font-variant:normal;font-weight:normal;font-stretch:normal;font-size:217.67677307px;font-family:Calibri;-inkscape-font-specification:Calibri;fill:#323232;fill-opacity:1;">FREEZER</tspan></text>
  </g>
</svg>
